<?xml version="1.0" encoding="UTF-8" standalone="no"?>
<!-- Created with Inkscape (http://www.inkscape.org/) -->

<svg
   xmlns:dc="http://purl.org/dc/elements/1.1/"
   xmlns:cc="http://creativecommons.org/ns#"
   xmlns:rdf="http://www.w3.org/1999/02/22-rdf-syntax-ns#"
   xmlns:svg="http://www.w3.org/2000/svg"
   xmlns="http://www.w3.org/2000/svg"
   xmlns:sodipodi="http://sodipodi.sourceforge.net/DTD/sodipodi-0.dtd"
   xmlns:inkscape="http://www.inkscape.org/namespaces/inkscape"
   id="svg2"
   version="1.1"
   inkscape:version="0.91 r13725"
   xml:space="preserve"
   width="303.77185"
   height="52.674099"
   viewBox="0 0 303.77184 52.6741"
   sodipodi:docname="ouishare-signature.svg"><metadata
     id="metadata8"><rdf:RDF><cc:Work
         rdf:about=""><dc:format>image/svg+xml</dc:format><dc:type
           rdf:resource="http://purl.org/dc/dcmitype/StillImage" /><dc:title></dc:title></cc:Work></rdf:RDF></metadata><defs
     id="defs6"><clipPath
       clipPathUnits="userSpaceOnUse"
       id="clipPath16"><path
         d="m 0,595.28 841.89,0 L 841.89,0 0,0 0,595.28 Z"
         id="path18"
         inkscape:connector-curvature="0" /></clipPath></defs><sodipodi:namedview
     pagecolor="#ffffff"
     bordercolor="#666666"
     borderopacity="1"
     objecttolerance="10"
     gridtolerance="10"
     guidetolerance="10"
     inkscape:pageopacity="0"
     inkscape:pageshadow="2"
     inkscape:window-width="1135"
     inkscape:window-height="706"
     id="namedview4"
     showgrid="false"
     inkscape:zoom="1"
     inkscape:cx="151.38275"
     inkscape:cy="27.125214"
     inkscape:window-x="113"
     inkscape:window-y="14"
     inkscape:window-maximized="0"
     inkscape:current-layer="g10"
     fit-margin-top="5"
     fit-margin-left="5"
     fit-margin-right="5"
     fit-margin-bottom="5" /><g
     id="g10"
     inkscape:groupmode="layer"
     inkscape:label="LOGO_OUISHARE_global-SMALL-RGB"
     transform="matrix(1.25,0,0,-1.25,-374.79852,397.59892)"><path
       inkscape:connector-curvature="0"
       id="path22"
       style="fill:#001e60;fill-opacity:1;fill-rule:nonzero;stroke:none"
       d="m 364.63911,299.10929 0,2.78755 c 0,2.90337 2.17256,4.37513 4.34395,4.37513 2.132,0 4.26439,-1.47176 4.26439,-4.37513 l 0,-2.78755 1.77751,0 0,2.78755 c 0,4.09787 -3.04221,6.16708 -6.0419,6.16708 -3.08081,0 -6.1195,-2.06921 -6.1195,-6.16708 l 0,-2.78755 1.77555,0 z m 8.60834,-2.58554 0,-3.54099 c 0,-2.86632 -2.171,-4.33809 -4.34551,-4.33809 -2.13199,0 -4.26283,1.43316 -4.26283,4.33809 l 0,3.54099 -1.77555,0 0,-3.54099 c 0,-4.09942 3.00009,-6.12808 6.03838,-6.12808 3.04221,0 6.12302,2.06921 6.12302,6.12808 l 0,3.54099 -1.77751,0 z m 5.56769,2.58554 0,2.78755 c 0,5.61019 -4.14505,10.06605 -9.75525,10.06605 -5.6063,0 -9.98847,-4.33652 -9.98847,-10.06605 l 0,-2.78755 1.77557,0 0,2.78755 c 0,4.69492 3.59363,8.27646 8.2129,8.27646 4.5826,0 7.97813,-3.66226 7.97813,-8.27646 l 0,-2.78755 1.77712,0 z m -19.74372,-6.04736 c 0,-5.73109 4.0273,-10.06762 9.67258,-10.06762 5.56769,0 10.07114,4.45586 10.07114,10.06762 l 0,3.46182 -1.77712,0 0,-3.46182 c 0,-4.61575 -3.71141,-8.27607 -8.29402,-8.27607 -4.61965,0 -7.89701,3.58114 -7.89701,8.27607 l 0,3.46182 -1.77557,0 0,-3.46182 z" /><path
       inkscape:connector-curvature="0"
       id="path26"
       style="fill:#001e60;fill-opacity:1;fill-rule:nonzero;stroke:none"
       d="m 396.98907,295.96713 0,-3.26371 c 0,-3.38264 -2.60465,-4.5752 -4.22422,-4.5752 -0.4742,0 -4.50344,0.11938 -4.50344,4.5752 l 0,3.26371 -1.774,0 0,-3.26371 c 0,-6.20725 5.60668,-6.36675 6.27744,-6.36675 2.29034,0 6.00174,1.67222 6.00174,6.36675 l 0,3.26371 -1.77752,0 z m -8.72766,2.58554 0,10.14836 c 0,1.55093 -1.18397,2.82459 -2.60465,2.82459 -1.45968,0 -2.60504,-1.27366 -2.60504,-2.82459 l 0,-10.14836 1.77596,0 0,10.14836 c 0,0.55688 0.35643,1.0346 0.82908,1.0346 0.43365,0 0.83065,-0.47772 0.83065,-1.0346 l 0,-10.14836 1.774,0 z m 13.98104,0 0,10.14836 c 0,1.55093 -1.14498,2.82459 -2.60621,2.82459 -1.42264,0 -2.64717,-1.27366 -2.64717,-2.82459 l 0,-10.14836 1.77752,0 0,10.14836 c 0,0.55688 0.39505,1.0346 0.86965,1.0346 0.47226,0 0.82908,-0.47772 0.82908,-1.0346 l 0,-10.14836 1.77713,0 z m -19.19073,-5.84925 c 0,-3.50042 1.26118,-6.32658 3.70985,-8.1969 2.40965,-1.83055 5.01625,-2.02866 6.00328,-2.02866 5.01666,0 9.4776,4.05692 9.4776,10.22556 l 0,3.26371 -1.77713,0 0,-3.26371 c 0,-5.09152 -3.63419,-8.43597 -7.70047,-8.43597 -0.8287,0 -2.96147,0.1599 -4.93553,1.67223 -1.97407,1.51038 -3.00164,3.85881 -3.00164,6.76374 l 0,3.26371 -1.77596,0 0,-3.26371 z" /><path
       inkscape:connector-curvature="0"
       id="path30"
       style="fill:#001e60;fill-opacity:1;fill-rule:nonzero;stroke:none"
       d="m 412.08572,299.10929 0,10.02941 c 0,1.55249 -1.2647,2.82419 -2.80315,2.82419 -1.54042,0 -2.80315,-1.2717 -2.80315,-2.82419 l 0,-10.02941 1.77556,0 0,10.02941 c 0,0.55687 0.47265,1.0346 1.02759,1.0346 0.55142,0 1.02563,-0.47773 1.02563,-1.0346 l 0,-10.02941 1.77752,0 z m -5.6063,-2.58554 0,-10.70523 c 0,-1.55094 1.26273,-2.82421 2.80315,-2.82421 1.53845,0 2.80315,1.27327 2.80315,2.82421 l 0,10.70523 -1.77752,0 0,-10.70523 c 0,-0.55689 -0.47421,-1.03266 -1.02563,-1.03266 -0.55494,0 -1.02759,0.47577 -1.02759,1.03266 l 0,10.70523 -1.77556,0 z" /><path
       inkscape:connector-curvature="0"
       id="path34"
       style="fill:#001e60;fill-opacity:1;fill-rule:nonzero;stroke:none"
       d="m 436.53882,290.87334 c 0,4.05927 -2.76298,7.12253 -7.3842,8.91408 l -1.97406,-5.29393 c 2.21155,-0.87316 3.79057,-2.02866 3.79057,-3.69892 0,-1.71278 -1.81651,-2.66628 -4.02612,-2.66628 -5.09542,0 -5.80674,2.66628 -7.81941,2.66628 -1.46124,0 -2.80315,-1.23506 -2.80315,-2.82616 0,-3.66226 6.59333,-5.45187 10.62256,-5.45187 5.29042,0 9.59381,3.30193 9.59381,8.19886 l 0,0.15794 z m -16.939,7.1627 c 1.26468,-1.15394 2.96108,-2.02865 5.13209,-2.70644 l 1.97444,5.25337 c -4.10644,1.1945 -4.18405,2.8246 -4.18405,3.50238 0,1.86876 2.05166,2.70486 3.9485,2.70486 1.38051,0 3.27581,-0.63604 5.09387,-1.70926 0.47422,-0.28078 0.94647,-0.39855 1.42069,-0.39855 1.45967,0 2.80353,1.15238 2.80353,2.8246 0,0.95349 -0.47265,1.87032 -1.34386,2.38859 -1.93389,1.15395 -4.89498,2.54499 -7.97423,2.54499 -5.40975,0 -9.55636,-3.58154 -9.55636,-8.35523 0,-2.34845 0.90786,-4.45783 2.68538,-6.04931" /><path
       inkscape:connector-curvature="0"
       id="path38"
       style="fill:#001e60;fill-opacity:1;fill-rule:nonzero;stroke:none"
       d="m 458.94045,311.96289 c -1.54197,0 -2.80315,-1.2717 -2.80315,-2.82419 l 0,-8.91408 -3.59402,0 0,-5.65037 3.59402,0 0,-8.75573 c 0,-1.55094 1.26118,-2.8246 2.80315,-2.8246 1.53845,0 2.80315,1.27366 2.80315,2.8246 l 0,23.32018 c 0,1.55249 -1.2647,2.82419 -2.80315,2.82419 m -8.96478,-11.73827 -3.59363,0 0,8.91408 c 0,1.55249 -1.26118,2.82419 -2.80315,2.82419 -1.54079,0 -2.80353,-1.2717 -2.80353,-2.82419 l 0,-23.32018 c 0,-1.55094 1.26274,-2.8246 2.80353,-2.8246 1.54197,0 2.80315,1.27366 2.80315,2.8246 l 0,8.75573 3.59363,0 0,5.65037 z" /><path
       inkscape:connector-curvature="0"
       id="path42"
       style="fill:#001e60;fill-opacity:1;fill-rule:nonzero;stroke:none"
       d="m 489.19663,286.85476 -8.88405,23.27805 c -0.43365,1.11534 -1.41912,1.83017 -2.60465,1.83017 -1.14536,0 -2.21312,-0.71483 -2.60817,-1.79 l -1.61801,-4.29793 c 1.26314,-0.63565 3.59403,-2.66625 4.93749,-6.20724 l 0.19656,-0.47772 c 0.70975,-1.63166 1.22451,-3.58154 1.46162,-4.13804 l 0.51282,-1.31383 -2.76454,0 -2.17139,-5.6488 7.06793,0 1.26314,-3.26488 c 0.43403,-1.15433 1.49984,-1.83055 2.60659,-1.83055 1.65818,0 2.8051,1.35439 2.8051,2.8246 0,0.358 -0.0811,0.67778 -0.20044,1.03617 m -12.83256,10.94234 c -1.38051,3.73948 -2.80315,5.0147 -3.82878,5.65036 l -6.35856,-16.5927 c -0.11741,-0.35839 -0.19655,-0.67817 -0.19655,-1.03617 0,-1.47021 1.14536,-2.8246 2.80315,-2.8246 1.14536,0 2.171,0.67622 2.60504,1.79155 l 4.9757,13.01156 z" /><path
       inkscape:connector-curvature="0"
       id="path46"
       style="fill:#001e60;fill-opacity:1;fill-rule:nonzero;stroke:none"
       d="m 536.05314,288.16683 -9.67451,0 0,-5.65037 9.67451,0 c 1.54042,0 2.80315,1.27328 2.80315,2.82577 0,1.55094 -1.26273,2.8246 -2.80315,2.8246 m -9.67451,17.66787 9.67451,0 c 1.54042,0 2.80315,1.27327 2.80315,2.82616 0,1.55287 -1.26273,2.82615 -2.80315,2.82615 l -9.67451,0 0,-5.65231 z m -2.56605,-11.61895 9.51659,0 c 1.57863,0 2.84175,1.27523 2.84175,2.8246 0,1.59305 -1.26312,2.86633 -2.84175,2.86633 l -9.51659,0 0,11.58033 -2.80353,0 c -1.54197,0 -2.80472,-1.27328 -2.80472,-2.82615 l 0,-23.31863 c 0,-1.43121 1.38208,-2.82577 2.80472,-2.82577 l 2.80353,0 0,11.69929 z" /><path
       inkscape:connector-curvature="0"
       id="path50"
       style="fill:#001e60;fill-opacity:1;fill-rule:nonzero;stroke:none"
       d="m 511.75635,296.92254 c 1.46124,1.55288 2.21117,3.93953 2.21117,6.16669 0,3.58309 -1.8563,6.52702 -5.40975,7.91807 -1.22414,0.47967 -2.64521,0.47967 -4.18562,0.47967 l -2.88231,0 0,-5.73147 2.68577,0 c 2.13239,0 4.38216,-0.43718 4.38216,-2.9841 0,-2.54655 -2.24977,-3.02466 -4.38216,-3.02466 l -2.68577,0 0,-5.72913 2.09223,0 c 3.43529,0 5.72601,0.35799 8.17428,2.90493 m -3.59363,-12.73428 c 0.47422,-1.03461 1.38208,-1.63166 2.44827,-1.63166 1.65817,0 2.64521,1.43316 2.64521,2.82616 l 0,0.27766 c 0,0.31783 -0.0772,0.63761 -0.23515,0.95349 l -2.76454,6.13004 c -1.57902,-0.79556 -3.35653,-1.23467 -5.37115,-1.31384 l 3.27736,-7.24185 z m -14.52934,24.432 0,-23.2375 c 0,-1.59306 1.18398,-2.86633 2.68382,-2.86633 1.50024,0 2.72437,1.27327 2.72437,2.86633 l 0,26.10421 -2.72437,0 c -1.49984,0 -2.68382,-1.27326 -2.68382,-2.86671" /><path
       inkscape:connector-curvature="0"
       id="path54"
       style="fill:#001e60;fill-opacity:1;fill-rule:nonzero;stroke:none"
       d="m 338.32478,294.16307 -14.77775,-8.53385 -14.78245,8.53385 0,11.37832 4.9258,2.84488 9.85665,-5.68936 9.85196,5.68936 4.92579,-2.84488 0,-11.37832 z m -4.93281,19.91607 -9.84494,-5.69287 -9.85665,5.68897 -9.85157,-5.68897 0,-17.06809 19.70822,-11.37832 19.70393,11.37832 0,17.06809 -9.85899,5.69287 z" /></g></svg>